<?xml version="1.0" encoding="utf-8"?>
<!-- Generator: Adobe Illustrator 27.3.1, SVG Export Plug-In . SVG Version: 6.00 Build 0)  -->
<svg version="1.1" id="Layer_1" xmlns="http://www.w3.org/2000/svg" xmlns:xlink="http://www.w3.org/1999/xlink" x="0px" y="0px"
	 viewBox="0 0 1080 1080" style="enable-background:new 0 0 1080 1080;" xml:space="preserve">
<style type="text/css">
	.st0{fill:#FFFFFF;}
</style>
<path d="M924.1,932.6c-8.6-3.4-14.1-10.2-19.1-17.7c-8.1-12.3-14.1-25.7-19.6-39.3c-10.2-25-18.1-50.7-25-76.9
	c-9.8-37-20.1-73.9-31.9-110.2c-2.7-8.2-5.9-16.4-8.9-24.6c-3-8.2-8.8-13.8-16.3-17.9c-6.8-3.8-14.1-5.9-21.8-6.9
	c-9.8-1.4-19.4-0.7-29.1,0.1c-12.4,1.3-25,2.4-37.4,3.1c-16.5,1-33.2,1.8-49.7,2.5c-14.3,0.6-28.7,0.7-43.1,1.1
	c-17.8,0.6-35.5,1.4-53.3,1.6c-30.4,0.4-60.8,0.7-91.1,0.6c-19.5-0.1-39.1-0.8-58.6-1.8c-18.2-1-36.3-2.5-54.4-4
	c-4.8-0.4-9.6-1.6-14.4-2.4c-16.5-2.5-33.1-3.3-49.5,0.4c-1.6,0.3-3.1,0.8-4.5,1.4c-6.5,2.3-11.4,6.2-14,12.9
	c-5.8,15.3-11.9,30.2-17.5,45.5c-13,35-25.6,70.2-38.9,105.1c-9.5,24.7-18.8,49.6-29.8,73.8c-5.1,11-10.3,21.9-17.1,31.9
	c-2.1,3.1-4.4,5.9-6.9,8.8c-1.6,1.8-3.4,3.3-5.2,4.8c-3.4,2.8-6.6,3.3-10.9,0.7c-14.1-8.5-28.8-16-44.2-22
	c-6.6-2.7-13.3-4.8-20.5-5.7c-14.6-1.7-26.4-8.6-36.5-19.2c-7.2-7.6-12-16.7-15.8-26.3c-6.5-16.1-10.2-32.9-11.7-50.3
	c-1.7-18.8-2.5-37.6-3-56.5c-0.1-3.3-0.3-6.5-0.4-9.8c0-0.7-0.4-1.4-0.6-2.3c0-17.7,0-35.2,0-52.8c0.7-4.2,1.4-8.3,2-12.6
	c2-16.7,3.7-33.5,5.8-50.2c2.1-17.1,4.2-34.1,6.6-51c2.1-15.4,4.5-30.8,8.1-46.1c5.4-23.6,10.3-47.3,15.7-71.1
	c4.9-22.2,10.3-44.4,18.9-65.6c10.3-25,19.9-50.4,31.8-74.8c8.6-17.4,18.1-34.3,29.5-50.2c13.3-18.4,30.4-31.7,51.4-40
	c20.8-8.2,42.3-13.1,64.3-16c12.2-1.6,24.4-2.3,36.7-3.5c1.3-0.1,2.7-0.4,4-0.7c3.4,0,6.8,0,10.2,0c1.1,0.3,2.1,0.6,3.3,0.7
	c11.6,1.7,21.3,6.4,27.8,16.4c0.3,0.4,0.7,0.8,0.8,1.1c2.3,0.4,3.3-0.6,3.8-2.5c1.3-4.5,4.4-7.6,8.9-9c2.7-0.8,5.5-1.1,8.3-1.4
	c3-0.3,6.1,0.1,9.2,0c19.2-0.7,38.3-1.8,57.5-2.4c31.8-1,63.6-1.6,95.5-2.4c1.1,0,2.1-0.3,3.3-0.4c17.4,0,34.8,0,52.3,0
	c1.3,0.1,2.7,0.4,4,0.4c16.1,0.4,32.4,0.6,48.5,1.1c17.5,0.7,34.9,1.8,52.4,3.1c10.3,0.7,20.6,2,31.1,3c11.6,1.3,23.2,2.7,34.6,3.8
	c4.2,0.4,7.1,2.4,8.5,6.2c0.7,1.7,1.1,3.8,1,5.7c-0.1,2.5,1,4,3.4,4.7c0.8-1.7,1.6-3.4,2.4-4.9c4.5-8.5,11.4-14.1,20.6-16.8
	c5.1-1.4,10.5-2,15.8-1.3c8.3,1,16.5,2,24.9,3.4c20.6,3.4,41.1,6.9,61.8,10.7c7.5,1.3,14.8,2.5,22,5.4c17.8,6.9,32.5,17.5,43.4,33.3
	c3.3,4.7,6.5,9.3,9.5,14c36.6,58.1,60.8,121.1,74,188.4c3.8,18.9,6.8,38,9.6,57.1c3,20.3,5.5,40.7,7.9,61.2
	c2,16.5,3.5,33.2,5.1,49.9c1.7,17.2,3.5,34.6,3.4,52c0,0.8,0.3,1.7,0.4,2.5c0,30.5,0,61,0,91.6c-0.1,1.4-0.6,2.8-0.6,4.2
	c0,19.5-1.1,39-3,58.5c-0.8,8.5-2.3,16.8-5.5,24.7c-9.6,23.9-26.6,38.9-52.6,42.4c-8.1,1.1-16.1,0.4-22-6.8c-1,0.4-2.1,0.8-3.1,1.4
	c-14.4,7.1-28.1,15.4-41.3,24.4c-2.8,2-4.4,4-3.5,7.3c0,0.1-0.1,0.4-0.1,0.6c-1.1,0.8-2.4,1.7-3.5,2.5
	C926.8,932.6,925.4,932.6,924.1,932.6z M335.6,227c-0.3-0.3-0.4-0.4-0.6-0.6c-0.3-0.7-0.7-1.4-1-2.1c-3-6.8-8.1-11.3-14.8-14
	c-4.7-1.8-9.6-2.7-14.6-2.5c-4,0.1-7.9,0.6-11.9,0.7c-16.7,0.6-33.3,2.5-49.7,5.7c-16.4,3-32.4,7.3-47.8,13.6
	c-18.5,7.5-33.8,18.9-45.5,35.2c-2.3,3.3-4.7,6.4-6.9,9.6c-12,17.9-22,37.2-30.5,56.9c-8.9,20.8-17.1,41.8-25.9,62.6
	c-4.4,10.3-7.8,20.9-10.2,31.9c-5.1,21.9-9.9,43.8-14.8,65.7c-3,13-6.2,25.9-8.6,39c-2.8,14.6-5.1,29.1-7.2,43.8
	c-2.1,15-4,30-5.8,44.9c-1.6,12.7-3,25.3-4.5,38c-0.8,8.1-2.1,16.1-2.4,24.3c-0.4,16.5-0.3,32.9-0.1,49.5
	c0.1,22.8,0.8,45.6,2.8,68.4c1.1,13.7,3.3,27.1,7.5,40.1c3,9.3,6.4,18.4,11.7,26.6c7.8,12,18.4,20.5,32.4,24c3.5,0.8,7.3,1,11,1.7
	c2.1,0.4,3.7-0.1,5.1-1.6c5.4-5.1,9.3-11,12-17.9c5.2-13.8,10-27.8,13.3-42.3c3.3-13.8,5.9-27.8,10-41.4c8.2-27.8,17-55.5,25.7-83.1
	c7.2-22.6,14.3-45.2,23.2-67.1c17.9-43.9,37.7-87,61-128.4c10.9-19.4,22.5-38.2,36.3-55.5c7.8-9.9,16.4-19.1,26.6-26.4
	c2.4-1.7,4.7-3.7,6.8-5.7c20.8-18.4,34.9-40.7,40-68.3c1.7-9,2-18.2,0.1-27.3c-2.7-13.6-5.8-27.1-8.6-40.7
	c-3.8-18.5-7.6-37.2-11.4-55.7c-0.1-0.4-0.3-0.8-0.4-1.4C337,227,336.3,227,335.6,227z M762.9,240.9c-0.3,0.8-0.6,1.4-0.7,1.8
	c-2.8,10.7-5.7,21.3-8.2,32.1c-4.8,19.9-7.9,40.1-10.9,60.3c-0.8,5.5-1.1,10.9-0.3,16.5c4.2,26.7,17.1,48.2,39.3,64
	c4.5,3.3,8.8,6.9,12.7,10.6c7.2,6.8,13.3,14.4,19.1,22.5c22.9,31.7,41.4,65.7,57.2,101.3c15.1,34.1,28.4,68.8,41.3,103.9
	c17.4,47.5,33.2,95.5,45.4,144.7c5.2,21.2,9.8,42.4,12.7,64c1,7.8,3.7,15.1,6.8,22.3c0.6,1.4,1.4,2.4,3.1,2.5c3,0.3,5.2,1.7,7.1,4.1
	c0.8,1,2.3,1.8,3.7,2.3c4.1,1.3,8.3,1.1,12.4,0.3c12.6-2.1,23.2-8.2,31.5-17.7c9.6-10.9,14.6-23.9,15.8-38.2
	c1.6-17.7,2.8-35.3,3.4-53.1c0.7-23.2,0.8-46.3,0.8-69.5c0-23.3-0.1-46.8-2.5-70.1c-1.8-17.8-3.1-35.6-5.1-53.3
	c-2.4-21.5-5.1-42.8-7.9-64.2c-3.1-24.3-7.2-48.5-12.2-72.5c-11.2-54.3-30-105.7-56.4-154.3c-7.3-13.4-15.3-26.4-24-38.9
	c-13.4-19.4-31.9-30.8-55-35.2c-27.6-5.2-55.1-10.2-82.8-14c-5.4-0.7-10.7-0.7-16.3-1c-1.3,0-2.5,0.4-4.1,0.7
	c0.6,4.1,1,8.1,1.6,11.9c-0.3,0-0.6,0.1-0.8,0.1c-0.6-3.8-1.3-7.6-2-11.9c-13.3,4.7-18.2,14.8-19.6,27.4
	C766.3,240.9,764.7,240.9,762.9,240.9z M749.6,219.4c-4.1-0.3-7.9-0.6-11.7-1c-7.6-0.8-15.3-2.1-22.9-2.8
	c-16.3-1.6-32.6-3.4-48.9-4.2c-24.2-1.4-48.3-2.5-72.5-3.1c-41.4-0.8-82.9-0.4-124.4,1c-17.8,0.6-35.8,1.3-53.6,1.8
	c-17.8,0.6-35.8,1.1-53.6,1.7c-1.8,0-3.7,0.3-5.4,0.6c-3.8,0.8-5.4,3.4-4.8,7.2c0.1,1,0.1,2,0.3,3c-1,0.4-1.8,0.7-2.8,1
	c0.1,0.8,0.1,1.7,0.3,2.4c6.6,34.2,13.4,68.4,20.2,102.6c1,5.2,1.7,10.6,3.3,15.5c2.8,8.9,7.8,16.8,14.4,23.5
	c5.2,5.4,11.2,9.6,18.1,12.3c6.2,2.4,12.6,3.7,19.2,2.4c2.3-0.4,4.7-1.1,6.9-1.3c6.5-0.4,13.1-1,19.6-1c24-0.1,47.9-0.1,71.9,0.1
	c30.7,0.4,61.2,1,91.8,1.7c22.3,0.6,44.8,1.3,67.1,1.8c1.4,0,3,0,4.4-0.4c7.5-2.4,14.6-5.5,21.2-9.8c9.9-6.5,16.5-15.3,19.6-26.7
	c1.6-5.9,3.4-11.9,4.8-17.9c4-17.1,7.8-34.1,11.4-51.2c2.7-12.6,5.2-25.2,7.8-37.9c0-0.3,0-0.6,0-1c-0.8-0.3-1.6-0.6-2.5-0.8
	c0.3-3.3,0.7-6.5,1-9.8C750,226,751.3,222.8,749.6,219.4z M828.2,661.8c0.6,1.7,0.8,2.5,1.1,3.5c1.7,4.9,3.7,9.8,5.2,14.7
	c13,39.1,23.9,78.8,34.5,118.6c7.2,27,15.5,53.6,26.4,79.3c4.8,11.4,10,22.8,17.1,33.1c2.3,3.4,5.1,6.4,7.6,9.5
	c0.6,0.6,1.3,1,2.4,1.7c-0.3-2.3-0.4-4-0.6-5.7c0-0.8-0.3-2.3,0.1-2.5c1.7-1.6,1-3,0.6-4.7c-4.4-16.5-8.6-33.2-13-49.7
	c-10-36.7-20.6-73.2-33.2-109.1c-5.7-16-11.6-31.8-18.9-47.1c-4.2-8.8-8.8-17.4-15.8-24.3c-0.3-0.3-0.7-0.7-0.8-1.1
	c-2.5-5.5-6.8-9.6-10.6-14C830,663.2,829.3,662.8,828.2,661.8z M160.1,918c1.1-0.4,1.8-0.4,2.1-0.7c1.6-1.3,3.3-2.5,4.4-4.2
	c3.7-4.9,7.3-10,10.6-15.3c7.1-11.9,12.6-24.4,17.8-37.3c16.3-39.8,31.4-80,46.2-120.4c10.6-29.1,21.8-57.9,32.6-86.9
	c0.1-0.4,0.3-0.8,0.3-1.4c-1.4,1-2.4,2.3-3.4,3.5c-4.9,7.1-10.2,13.8-14.7,21.1c-17.4,27-31.5,55.8-44.1,85.3
	c-21.2,49.5-37.4,100.6-51.2,152.6C160.4,915.5,160.4,916.5,160.1,918z M722,547.9c41.7-0.1,74.9-32.8,75.7-73.8
	c0.8-43.4-33.8-75.6-73.1-76.7c-41.5-1.1-76.6,31.8-77.4,73.8C646.6,513.3,679.8,547.4,722,547.9z M453.7,473
	c0.1-41.4-33.6-75.3-74.9-75.3c-41.7-0.1-75.3,33.3-75.6,74.8c-0.3,40.8,32.6,75.6,75.2,75.6C419.9,548.2,453.6,514.7,453.7,473z
	 M548.8,628.2c-18.1,0-36.2,0-54.3,0c-1.1,0-2.3,0-3.4,0.1c-2.8,0.4-4.9,2.8-5.1,5.5c-0.1,2.7,1.7,5.4,4.4,6.1
	c1.1,0.3,2.4,0.4,3.7,0.4c36.5,0,73.1,0,109.5,0c1.3,0,2.5-0.1,3.7-0.4c2.8-0.7,4.4-3.1,4.2-6.2c-0.1-2.7-2.1-4.9-4.8-5.4
	c-1.1-0.1-2.3-0.1-3.4-0.1C585.1,628.2,567,628.2,548.8,628.2z M549.8,501.5c0.1-0.6,0.1-1,0.1-1.4c0.3-12.4,0.7-24.9,1-37.3
	c0-0.8-0.1-1.8,0.1-2.7c0.1-0.6,1-1.3,1.3-1.1c0.6,0.1,1.4,0.7,1.6,1.4c0.3,0.7-0.1,1.6,0,2.4c0.1,4.5,0.3,9,0.7,13.4
	c0.1,2,1.4,3.5,3.7,4c2.4,0.3,4.5-0.7,5.5-2.8c0.8-2,1.7-4,2.1-6.1c1.3-5.4-0.6-9.9-5.1-13c-4.7-3.3-9.9-5.5-15.4-6.8
	c-1.7-0.4-3.4-1.1-5.2-0.3c-0.1,0.6-0.3,0.8-0.3,1.1c0,13.6,0,27.1,0,40.7c0,1.1,0.3,2.3,0.6,3.4C542,500.5,544.8,502.2,549.8,501.5
	z M546.4,538.5L546.4,538.5c-0.6,0-1.1,0-1.7,0c-5.2,0-10.5-0.1-15.5,0.1c-4.1,0.1-7.1,3.5-7.3,7.5c-0.1,4.1,2.4,7.5,6.4,8.3
	c1.3,0.3,2.4,0.3,3.7,0.3c9.5,0,18.9,0,28.4,0c1.4,0,2.7-0.1,4-0.4c4.7-1.1,7.3-5.9,5.7-10.5c-1.1-3.4-3.8-5.4-7.8-5.4
	C557,538.3,551.6,538.5,546.4,538.5z M569.9,488.9c-0.8,2-2.8,1.8-4.5,2.1c-3,0.6-6.1,1-8.9,1.7c-3.2,0.7-4.1,2.1-3.2,5.4
	c0.4,1.7,1.3,2.3,3,1.8c1.1-0.3,2.4-0.8,3.5-1.3c4.9-1.8,9.8-4.2,15.3-4.2c2.1,0,3.7-1.4,4.8-3.4c1.3-2.4,1.1-3.4-1.4-4.5
	c-3.5-1.6-7.3-2.8-11.2-4.1c0.1-0.4,0.4-1.3,0.6-2.1c0.1-0.8,0.3-1.7,0.4-2.7c-3.8,3.5-7.8,5.9-12.3,7.5c-0.4,0.1-0.8,0.4-1.1,0.7
	c-1.6,1.3-1.6,2.1-0.1,4.5c1.4-0.4,3-0.8,4.4-1.3c2.7-0.6,5.2-1.3,7.9-1.7C567.9,487,569.4,487,569.9,488.9z M536.7,479.8
	c-6.1,1.6-11.9,3-17.5,4.7c-1.7,0.6-3.3,2-4.4,3.5c-2.7,4-1.1,7.3,3.5,8.1c5.9,1,11.7-0.3,17.4-1.8c0.7-0.1,1.4-1.3,1.6-2
	c0.3-1.1,0-2.3,0-3.8c-1.6,0.4-2.7,0.8-3.7,1.1c-1.8,0.4-3.7,0.8-5.7,1.3c-1,0.1-2,0.1-2-1.1c0-0.4,1-1,1.6-1.3
	c2.3-0.8,4.5-1.3,6.6-2.3C536.9,484.9,537.5,483.1,536.7,479.8z M527.3,428.3c0-3-2.3-5.4-5.2-5.5c-3.1-0.1-5.7,2.3-5.7,5.5
	c0,3,2.4,5.4,5.4,5.4S527.2,431.1,527.3,428.3z M545.7,428.3c0-3-2.3-5.4-5.2-5.5c-3.1-0.1-5.7,2.3-5.7,5.5c0,3,2.4,5.4,5.4,5.4
	C543.2,433.6,545.6,431.2,545.7,428.3z M558.6,433.5c3,0,5.4-2.4,5.4-5.4c0-3-2.3-5.4-5.2-5.5c-3.1-0.1-5.7,2.4-5.7,5.5
	C553.2,431.1,555.7,433.5,558.6,433.5z M510.9,405.4c-2.8,0-5.4,2.4-5.4,5.4c0,3,2.3,5.4,5.2,5.5c3.1,0.1,5.7-2.4,5.5-5.5
	C516.4,407.8,513.9,405.4,510.9,405.4z M529.3,405.4c-2.8,0-5.4,2.5-5.4,5.5c0,3.1,2.5,5.5,5.7,5.4c3-0.1,5.2-2.5,5.1-5.5
	C534.7,407.6,532.3,405.2,529.3,405.4z M553.2,410.9c0-3-2.3-5.5-5.2-5.5c-3-0.1-5.7,2.5-5.7,5.5c0,3,2.5,5.4,5.5,5.4
	C550.8,416.2,553.2,414,553.2,410.9z M582.4,428.1c0-3.1-2.3-5.4-5.4-5.4c-3,0-5.4,2.4-5.5,5.2c0,3,2.5,5.7,5.7,5.5
	C580.2,433.5,582.4,431.1,582.4,428.1z M587.7,405.4c-3,0.1-5.4,2.7-5.4,5.5c0,3.1,2.7,5.5,5.8,5.4c3-0.1,5.2-2.5,5.1-5.7
	C593,407.6,590.6,405.2,587.7,405.4z M573.7,410.9c0-3-2.4-5.4-5.2-5.5c-3-0.1-5.7,2.5-5.5,5.7c0,3,2.4,5.2,5.5,5.2
	C571.4,416.1,573.7,413.8,573.7,410.9z"/>
<path class="st0" d="M526.6,199.1c-1.1,0.1-2.1,0.4-3.3,0.4c-31.8,0.8-63.6,1.4-95.5,2.4c-19.2,0.6-38.3,1.6-57.5,2.4
	c-3.1,0.1-6.1-0.1-9.2,0c-2.8,0.1-5.7,0.6-8.3,1.4c-4.5,1.4-7.6,4.5-8.9,9c-0.6,2-1.6,3-3.8,2.5c-0.1-0.3-0.6-0.7-0.8-1.1
	c-6.5-10.2-16.3-14.8-27.8-16.4c-1.1-0.1-2.1-0.4-3.3-0.7C381.1,199.1,453.8,199.1,526.6,199.1z"/>
<path class="st0" d="M335.6,227c0.7,0,1.4,0,2.3,0c0.1,0.6,0.3,1,0.4,1.4c3.8,18.5,7.6,37.2,11.4,55.7c2.8,13.6,5.9,27.1,8.6,40.7
	c1.8,9,1.6,18.2-0.1,27.3c-5.1,27.6-19.2,49.9-40,68.3c-2.3,2-4.4,4-6.8,5.7c-10.3,7.3-18.8,16.5-26.6,26.4
	c-13.8,17.4-25.4,36.2-36.3,55.5c-23.2,41.4-43.1,84.5-61,128.4c-9,21.9-16.1,44.7-23.2,67.1c-8.8,27.7-17.5,55.3-25.7,83.1
	c-4,13.6-6.8,27.6-10,41.4c-3.4,14.4-8.1,28.4-13.3,42.3c-2.7,6.8-6.6,12.9-12,17.9c-1.6,1.4-3,2.1-5.1,1.6c-3.7-0.8-7.5-0.8-11-1.7
	c-14.1-3.5-24.6-12-32.4-24c-5.4-8.2-8.8-17.2-11.7-26.6c-4.2-13.1-6.4-26.6-7.5-40.1c-2-22.8-2.7-45.5-2.8-68.4
	c-0.1-16.5-0.3-32.9,0.1-49.5c0.1-8.1,1.4-16.3,2.4-24.3c1.4-12.7,2.8-25.3,4.5-38c1.8-15,3.7-30.1,5.8-44.9
	c2.1-14.7,4.4-29.3,7.2-43.8c2.5-13.1,5.8-26,8.6-39c4.9-21.9,9.8-43.8,14.8-65.7c2.5-10.9,5.9-21.5,10.2-31.9
	c8.6-20.8,16.8-41.8,25.9-62.6c8.5-19.8,18.5-39,30.5-56.9c2.3-3.3,4.5-6.5,6.9-9.6c11.7-16.3,27-27.7,45.5-35.2
	c15.4-6.2,31.5-10.6,47.8-13.6c16.5-3,33.1-4.9,49.7-5.7c4-0.1,7.9-0.6,11.9-0.7c4.9-0.1,9.9,0.8,14.6,2.5c6.9,2.7,11.9,7.2,14.8,14
	c0.3,0.7,0.7,1.4,1,2.1C335.1,226.6,335.3,226.8,335.6,227z M323.1,347.4c0-52.3-42.3-94.5-94-95.1c-51.6-0.4-95.2,41-95.9,93.8
	c-0.7,52,41.3,95.9,94.7,96.1C280.5,442.4,323.1,400,323.1,347.4z M316.6,275.8c6.2,0,10.9-5.5,9.5-11.6c-1.8-8.1-4-16-6.2-23.9
	c-1.6-5.4-6.6-8.1-12-6.6c-4.9,1.3-7.9,6.4-6.8,11.6c0.6,2.3,1.1,4.5,1.8,6.9c1.4,5.4,2.7,10.7,4.2,16
	C308.3,273,312,275.8,316.6,275.8z M291.9,230.3c0.1-0.1,0.3-0.3,0.6-0.4c-1.8-3.1-6.5-8.2-8.9-8.9
	C286.3,224.1,289.1,227.2,291.9,230.3z M313.2,211.8c-1.8,2.4-3.5,10.6-2.5,12.7C311.6,220.3,312.4,216,313.2,211.8z M298.8,216
	c-0.3,0.1-0.4,0.1-0.7,0.3c0.6,4.2,2.3,9.2,4.1,11C301.1,223.2,300,219.5,298.8,216z"/>
<path class="st0" d="M762.9,240.9c1.7,0,3.3,0,4.9,0c1.4-12.7,6.2-22.8,19.6-27.4c0.7,4.2,1.3,8.1,2,11.9c0.3,0,0.6-0.1,0.8-0.1
	c-0.6-3.8-1-7.8-1.6-11.9c1.6-0.3,2.8-0.7,4.1-0.7c5.4,0.3,10.9,0.3,16.3,1c27.7,3.8,55.3,8.8,82.8,14c23,4.4,41.5,15.8,55,35.2
	c8.8,12.6,16.7,25.6,24,38.9c26.4,48.6,45.2,100,56.4,154.3c4.9,24,8.9,48.2,12.2,72.5c2.8,21.3,5.5,42.8,7.9,64.2
	c2,17.7,3.2,35.5,5.1,53.3c2.4,23.3,2.5,46.6,2.5,70.1c0,23.2-0.1,46.3-0.8,69.5c-0.6,17.7-1.8,35.5-3.4,53.1
	c-1.3,14.3-6.1,27.3-15.8,38.2c-8.5,9.5-18.9,15.5-31.5,17.7c-4.1,0.7-8.3,1-12.4-0.3c-1.3-0.4-2.8-1.1-3.7-2.3
	c-1.8-2.4-4.1-4-7.1-4.1c-1.7-0.1-2.5-1.1-3.1-2.5c-3.1-7.2-5.7-14.6-6.8-22.3c-3-21.6-7.5-43-12.7-64
	c-12.2-49.2-28.1-97.1-45.4-144.7c-12.9-35-26.1-69.8-41.3-103.9c-15.8-35.6-34.3-69.7-57.2-101.3c-5.8-7.9-11.9-15.7-19.1-22.5
	c-4-3.8-8.2-7.5-12.7-10.6c-22-16-34.9-37.4-39.1-64.2c-0.8-5.5-0.6-11,0.3-16.5c3-20.2,6.1-40.4,10.9-60.3
	c2.5-10.7,5.5-21.5,8.2-32.1C762.3,242.3,762.6,241.7,762.9,240.9z M780.5,347.4c0.3,53.7,43.4,94.7,94.5,95.1
	c52.1,0.3,95.1-42,95.7-93.8c0.4-52.8-42-95.1-93.4-96.1C826.2,251.6,781,292.2,780.5,347.4z M790.2,275.8c4.8,0,8.3-3,9.6-7.9
	c1.8-7.5,3.5-15,5.2-22.5c1.3-5.7-1.7-10.6-7.2-12c-5.4-1.3-10.3,1.7-11.9,7.3c-2,7.8-3.8,15.5-5.5,23.3
	C779.3,270.3,783.9,275.8,790.2,275.8z M817.4,221.5c-0.1-0.1-0.4-0.4-0.6-0.6c-3.4,2.4-8.3,7.8-9.2,10.5
	C811.4,227.9,814.3,224.6,817.4,221.5z M798.9,227.9c0.3,0,0.6,0.1,0.8,0.1c1.3-3.5,2.3-7.1,3-10.7c-0.3-0.1-0.6-0.1-0.8-0.3
	C801,220.7,800,224.2,798.9,227.9z"/>
<path class="st0" d="M749.6,219.4c1.7,3.5,0.4,6.8,0.1,9.9c-0.3,3.3-0.6,6.5-1,9.8c1,0.4,1.7,0.6,2.5,0.8c0,0.3,0,0.7,0,1
	c-2.5,12.6-4.9,25.3-7.8,37.9c-3.7,17.1-7.5,34.2-11.4,51.2c-1.4,6.1-3.2,12-4.8,17.9c-3.1,11.4-9.8,20.2-19.6,26.7
	c-6.5,4.4-13.7,7.5-21.2,9.8c-1.4,0.4-2.8,0.4-4.4,0.4c-22.3-0.6-44.8-1.4-67.1-1.8c-30.7-0.7-61.2-1.3-91.8-1.7
	c-24-0.3-47.9-0.3-71.9-0.1c-6.5,0-13.1,0.6-19.6,1c-2.4,0.1-4.7,0.8-6.9,1.3c-6.6,1.3-13,0.1-19.2-2.4c-6.9-2.7-12.9-6.9-18.1-12.3
	c-6.5-6.8-11.4-14.6-14.4-23.5c-1.6-5.1-2.3-10.3-3.3-15.5c-6.8-34.2-13.4-68.4-20.2-102.6c-0.1-0.7-0.1-1.6-0.3-2.4
	c1-0.3,1.7-0.6,2.8-1c-0.1-1-0.1-2-0.3-3c-0.6-3.8,1-6.4,4.8-7.2c1.7-0.4,3.5-0.6,5.4-0.6c17.8-0.6,35.8-1.1,53.6-1.7
	c17.8-0.6,35.8-1.3,53.6-1.8c41.4-1.4,82.9-1.8,124.4-1c24.2,0.4,48.3,1.7,72.5,3.1c16.4,1,32.6,2.7,48.9,4.2
	c7.6,0.7,15.3,2,22.9,2.8C741.7,218.8,745.6,219,749.6,219.4z"/>
<path class="st0" d="M828.2,661.8c1.1,1,1.8,1.4,2.3,2c3.8,4.4,8.1,8.5,10.6,14c0.1,0.4,0.6,0.7,0.8,1.1
	c7.1,6.9,11.4,15.5,15.8,24.3c7.3,15.3,13.4,31.1,18.9,47.1c12.6,35.9,23.2,72.3,33.2,109.1c4.5,16.5,8.8,33.2,13,49.7
	c0.4,1.6,1.3,3.1-0.6,4.7c-0.4,0.4-0.3,1.7-0.1,2.5c0.1,1.7,0.3,3.4,0.6,5.7c-1.1-0.7-2-1.1-2.4-1.7c-2.7-3.1-5.4-6.1-7.6-9.5
	c-7.1-10.3-12.3-21.6-17.1-33.1c-10.9-25.7-19.2-52.3-26.4-79.3c-10.6-39.8-21.5-79.6-34.5-118.6c-1.7-4.9-3.5-9.8-5.2-14.7
	C829,664.4,828.7,663.4,828.2,661.8z"/>
<path class="st0" d="M160.1,918c0.3-1.6,0.3-2.5,0.6-3.5c13.7-52,30.1-103.2,51.2-152.6c12.6-29.5,26.7-58.4,44.1-85.3
	c4.7-7.2,9.8-14.1,14.7-21.1c0.8-1.3,2-2.4,3.4-3.5c-0.1,0.4-0.1,1-0.3,1.4c-10.9,29-22,57.8-32.6,86.9
	c-14.7,40.4-29.8,80.7-46.2,120.4c-5.2,12.7-10.7,25.3-17.8,37.3c-3.1,5.4-6.9,10.3-10.6,15.3c-1.1,1.6-2.8,2.8-4.4,4.2
	C161.9,917.6,161.2,917.6,160.1,918z"/>
<path class="st0" d="M722,547.9c-42.3-0.6-75.5-34.6-74.8-76.7c0.7-42,35.9-74.9,77.4-73.8c39.3,1.1,73.9,33.3,73.1,76.7
	C796.9,515.2,763.9,547.9,722,547.9z M722.2,542.4c39.8,0,71.2-32.5,70.1-71.6c-1.1-39.4-34.3-69.4-72.9-67.7
	c-37.4,1.7-67.8,33.2-66.4,72.1C654.2,512.9,685.2,542.3,722.2,542.4z"/>
<path class="st0" d="M453.7,473c-0.1,41.5-33.8,75.2-75.3,75.2c-42.4,0-75.5-34.9-75.2-75.6c0.3-41.5,33.9-74.9,75.6-74.8
	C420.1,397.9,453.8,431.8,453.7,473z M448.2,473.2c0.1-38.4-30.9-69.8-69-69.9c-38.9-0.1-70.1,30.8-70.4,69.4
	c-0.3,37.2,29.7,69.9,69.5,70.1C416.8,542.9,448.1,511.6,448.2,473.2z"/>
<path class="st0" d="M548.8,628.2c18.2,0,36.5,0,54.5,0c1.1,0,2.3,0,3.4,0.1c2.7,0.4,4.7,2.7,4.8,5.4c0.3,3-1.4,5.4-4.2,6.2
	c-1.1,0.3-2.4,0.4-3.7,0.4c-36.5,0-73.1,0-109.5,0c-1.3,0-2.5-0.1-3.7-0.4c-2.8-0.7-4.7-3.3-4.4-6.1c0.1-2.8,2.3-5.1,5.1-5.5
	c1.1-0.1,2.3-0.1,3.4-0.1C512.6,628.2,530.7,628.2,548.8,628.2z"/>
<path class="st0" d="M549.8,501.5c-4.9,0.7-7.8-1.1-9-5.4c-0.3-1.1-0.6-2.3-0.6-3.4c0-13.6,0-27.1,0-40.7c0-0.3,0.1-0.7,0.3-1.1
	c1.7-0.7,3.5-0.1,5.2,0.3c5.5,1.3,10.7,3.7,15.4,6.8c4.5,3.1,6.4,7.5,5.1,13c-0.4,2.1-1.3,4.1-2.1,6.1c-1,2.3-3.3,3.3-5.5,2.8
	c-2.3-0.3-3.4-2-3.7-4c-0.4-4.5-0.6-9-0.7-13.4c0-0.8,0.3-1.7,0-2.4c-0.3-0.6-1-1.1-1.6-1.4c-0.3-0.1-1.1,0.7-1.3,1.1
	c-0.3,0.8-0.1,1.8-0.1,2.7c-0.3,12.4-0.7,24.9-1,37.3C549.9,500.5,549.9,500.9,549.8,501.5z"/>
<path class="st0" d="M546.4,538.5c5.4,0,10.6-0.1,16,0c4,0.1,6.6,2.1,7.8,5.4c1.6,4.5-1,9.3-5.7,10.5c-1.3,0.3-2.7,0.4-4,0.4
	c-9.5,0-18.9,0-28.4,0c-1.3,0-2.5-0.1-3.7-0.3c-4-0.8-6.6-4.2-6.4-8.3c0.1-4.1,3.1-7.3,7.3-7.5c5.2-0.3,10.3-0.1,15.5-0.1
	C545.3,538.5,545.8,538.5,546.4,538.5L546.4,538.5z"/>
<path class="st0" d="M569.9,488.9c-0.4-1.8-2-1.8-3.2-1.7c-2.7,0.4-5.2,1-7.9,1.7c-1.6,0.4-3,0.8-4.4,1.3c-1.4-2.4-1.4-3.3,0.1-4.5
	c0.3-0.3,0.7-0.6,1.1-0.7c4.7-1.4,8.5-4,12.3-7.5c-0.1,0.8-0.1,1.7-0.4,2.7c-0.1,0.8-0.6,1.7-0.6,2.1c3.8,1.4,7.5,2.5,11.2,4.1
	c2.5,1.1,2.7,2.1,1.4,4.5c-1,2-2.5,3.4-4.8,3.4c-5.5,0-10.3,2.3-15.3,4.2c-1.1,0.4-2.3,1-3.5,1.3c-1.7,0.4-2.5-0.1-3-1.8
	c-0.7-3.3,0-4.7,3.3-5.4c3-0.7,5.9-1,8.9-1.7C567,490.7,569,490.9,569.9,488.9z"/>
<path class="st0" d="M536.7,479.8c0.8,3.1,0.3,5.1-2.4,6.4c-2.1,1-4.5,1.4-6.6,2.3c-0.6,0.3-1.6,0.8-1.6,1.3c-0.1,1.3,1,1.3,2,1.1
	c1.8-0.4,3.8-0.8,5.7-1.3c1.1-0.3,2.1-0.6,3.7-1.1c0,1.6,0.3,2.7,0,3.8c-0.1,0.7-0.8,1.7-1.6,2c-5.7,1.6-11.4,2.8-17.4,1.8
	c-4.7-0.7-6.2-4.2-3.5-8.1c1-1.6,2.7-3,4.4-3.5C524.9,482.8,530.7,481.4,536.7,479.8z"/>
<path class="st0" d="M527.3,428.3c0,3-2.5,5.4-5.5,5.4s-5.4-2.4-5.4-5.4c0-3.1,2.4-5.5,5.7-5.5C525.1,422.7,527.3,425.1,527.3,428.3
	z"/>
<path class="st0" d="M545.7,428.3c0,3-2.5,5.4-5.5,5.4c-3,0-5.4-2.4-5.4-5.4c0-3.1,2.4-5.5,5.7-5.5
	C543.4,422.7,545.7,425.1,545.7,428.3z"/>
<path class="st0" d="M558.6,433.5c-3,0-5.4-2.4-5.5-5.4c0-3.1,2.5-5.5,5.7-5.5c3,0.1,5.2,2.4,5.2,5.5
	C563.9,431.2,561.5,433.6,558.6,433.5z"/>
<path class="st0" d="M510.9,405.4c3,0,5.4,2.4,5.4,5.4c0,3.1-2.4,5.5-5.5,5.5c-3-0.1-5.4-2.4-5.2-5.5
	C505.6,407.8,508.1,405.4,510.9,405.4z"/>
<path class="st0" d="M529.3,405.4c3,0,5.4,2.4,5.5,5.2c0.1,3.1-2.1,5.4-5.1,5.5c-3.1,0.1-5.7-2.3-5.7-5.4
	C523.9,407.9,526.5,405.4,529.3,405.4z"/>
<path class="st0" d="M553.2,410.9c0,3.1-2.4,5.4-5.4,5.4s-5.4-2.4-5.5-5.4c0-3,2.7-5.7,5.7-5.5C550.9,405.4,553.2,407.9,553.2,410.9
	z"/>
<path class="st0" d="M582.4,428.1c0,3-2.3,5.4-5.2,5.5c-3,0-5.7-2.5-5.7-5.5s2.5-5.2,5.5-5.2C580,422.7,582.3,425,582.4,428.1z"/>
<path class="st0" d="M587.7,405.4c3-0.1,5.4,2.3,5.5,5.2c0.1,3.1-2,5.5-5.1,5.7c-3.1,0.1-5.8-2.3-5.8-5.4
	C582.3,407.9,584.8,405.4,587.7,405.4z"/>
<path class="st0" d="M573.7,410.9c0,3-2.3,5.4-5.4,5.4c-3,0-5.4-2.3-5.5-5.2c0-3.1,2.5-5.7,5.5-5.7
	C571.4,405.4,573.8,407.9,573.7,410.9z"/>
<path d="M323.1,347.4c0,52.4-42.7,95-95.2,94.8c-53.4-0.1-95.4-44.1-94.7-96.1c0.7-52.8,44.4-94.3,95.9-93.8
	C280.9,252.9,323.1,295.3,323.1,347.4z M137.2,347.3c-0.4,49.3,40,90.9,90.6,91c50.7,0.1,91.4-40.4,91.4-90.7
	c0-50.4-40.7-91.1-91.1-91.3C176.9,256.4,136.8,298.4,137.2,347.3z"/>
<path d="M316.6,275.8c-4.7,0-8.2-2.8-9.6-7.6c-1.4-5.4-2.8-10.7-4.2-16c-0.6-2.3-1.3-4.5-1.8-6.9c-1.1-5.2,1.8-10.3,6.8-11.6
	c5.2-1.4,10.5,1.3,12,6.6c2.3,7.9,4.4,15.8,6.2,23.9C327.5,270.1,322.9,275.8,316.6,275.8z"/>
<path d="M291.9,230.3c-2.8-3.1-5.5-6.2-8.3-9.5c2.4,0.7,7.1,5.8,8.9,8.9C292.2,230,292.1,230.1,291.9,230.3z"/>
<path d="M313.2,211.8c-0.8,4.2-1.7,8.5-2.5,12.7C309.7,222.2,311.3,214.2,313.2,211.8z"/>
<path d="M298.8,216c1.1,3.5,2.3,7.1,3.5,11.3c-2-1.8-3.7-6.8-4.1-11C298.4,216.2,298.7,216.2,298.8,216z"/>
<path d="M780.5,347.4c0.4-55.3,45.6-95.8,96.7-94.8c51.4,0.8,93.8,43.1,93.4,96.1c-0.4,51.9-43.5,94.3-95.7,93.8
	C823.9,442.1,780.8,401.1,780.5,347.4z M875.6,256.4c-48.9-0.3-90.7,39.1-91.1,90.2c-0.4,52.1,41.7,91,89.4,91.8
	c48.6,0.8,92.4-37.9,92.7-90.7C967.1,297.5,926.1,256.6,875.6,256.4z"/>
<path d="M790.2,275.8c-6.2,0-10.9-5.5-9.6-11.6c1.7-7.8,3.5-15.7,5.5-23.3c1.4-5.7,6.5-8.8,11.9-7.3c5.4,1.4,8.5,6.4,7.2,12
	c-1.7,7.5-3.4,15-5.2,22.5C798.6,272.8,795,275.8,790.2,275.8z"/>
<path d="M817.4,221.5c-3.1,3.1-6.1,6.2-9.8,9.9c0.8-2.7,5.8-8.1,9.2-10.5C817,221.2,817.1,221.4,817.4,221.5z"/>
<path d="M798.9,227.9c1-3.5,2-7.2,3.1-10.7c0.3,0.1,0.6,0.1,0.8,0.3c-0.7,3.7-1.7,7.2-3,10.7C799.6,228,799.2,227.9,798.9,227.9z"/>
<path d="M722.2,542.4c-37.2-0.1-68-29.5-69.4-67.3c-1.4-38.9,29-70.4,66.4-72.1c38.7-1.8,71.8,28.3,72.9,67.7
	C793.4,509.9,762,542.4,722.2,542.4z M722.6,435.3c-20.6,0-37.3,16.5-37.3,37.2c0,20.8,16.7,37.6,37.3,37.6
	c20.6,0,37.4-16.8,37.4-37.6C759.9,452,743.2,435.5,722.6,435.3z"/>
<path d="M448.2,473.2c-0.1,38.4-31.4,69.7-69.8,69.5c-39.8-0.1-69.9-33.1-69.5-70.1c0.3-38.4,31.5-69.5,70.4-69.4
	C417.2,403.4,448.2,434.8,448.2,473.2z M378.4,510.2c20.8,0,37.6-16.7,37.4-37.4c0-20.6-16.7-37.3-37.3-37.3
	c-20.8,0-37.4,16.7-37.4,37.4C341.1,493.7,357.8,510.2,378.4,510.2z"/>
<path class="st0" d="M137.2,347.3c-0.4-48.9,39.7-91,90.9-91c50.4,0,91.1,40.8,91.1,91.3c0,50.3-40.8,90.9-91.4,90.7
	C177.2,438.3,136.8,396.6,137.2,347.3z M256.7,314.2c0-1.6,0-2.7,0-3.8c0-7.6,0-15.4,0-23c0-4.1-0.1-4.2-4.1-4.2
	c-16.3,0-32.5,0-48.9,0c-3.7,0-4.1,0.3-4.1,4.1c0,7.8,0,15.5,0,23.3c0,1.1-0.1,2.4-0.1,3.7c-1.6,0-2.7,0-3.8,0c-7.6,0-15.4,0-23,0
	c-3.8,0-4.1,0.3-4.1,4c0,16.3,0,32.5,0,48.8c0,4,0.3,4.1,4.4,4.1c7.6,0,15.4,0,23,0c1.1,0,2.4,0.1,3.7,0.1c0,1.6,0,2.8,0,4.1
	c0,8.1,0,16.1,0,24c0,3.4,0.3,3.7,3.7,3.7c16.5,0,33.1,0,49.5,0c3.5,0,3.8-0.3,3.8-3.8c0-8.2,0-16.3,0-24.4c0-1.1,0.1-2.3,0.1-3.7
	c1.4,0,2.5,0,3.8,0c7.8,0,15.5,0,23.5,0c3.1,0,3.7-0.6,3.7-3.5c0-16.7,0-33.2,0-49.9c0-3.3-0.4-3.5-3.8-3.7c-7.6,0-15.4,0-23,0
	C259.7,314.2,258.4,314.2,256.7,314.2z"/>
<path class="st0" d="M875.6,256.4c50.4,0.1,91.3,41,91,91.3c-0.4,52.8-44.1,91.6-92.7,90.7c-47.8-0.8-89.9-39.7-89.4-91.8
	C784.9,295.6,826.8,256.3,875.6,256.4z M856.9,304.8c0,11.9,9.3,21.3,21.2,21.3c11.9,0.1,21.6-9.6,21.6-21.5
	c0-11.7-9.5-21.3-21.2-21.5C866.5,283.3,856.9,292.9,856.9,304.8z M878.2,367.9c-11.9,0-21.2,9.5-21.3,21.3c0,12,9.5,21.5,21.5,21.5
	c11.7,0,21.3-9.5,21.3-21.2C899.7,377.4,890.1,367.8,878.2,367.9z M941.8,347.6c0-12-9.5-21.6-21.5-21.5c-11.7,0-21.3,9.6-21.3,21.3
	c0,11.9,9.6,21.6,21.5,21.5C932.3,368.9,941.8,359.4,941.8,347.6z M835.9,326.1c-12,0.1-21.3,9.8-21.2,21.8
	c0.1,11.7,9.6,21.1,21.3,21.1c11.9,0,21.8-9.9,21.5-21.6C857.3,335.6,847.5,325.9,835.9,326.1z"/>
<path class="st0" d="M722.6,435.3c20.6,0,37.3,16.7,37.3,37.2c0,20.6-16.7,37.6-37.4,37.6c-20.6,0-37.3-16.8-37.3-37.6
	C685.3,451.9,702,435.3,722.6,435.3z"/>
<path class="st0" d="M378.4,510.2c-20.6,0-37.3-16.5-37.3-37.2c0-20.8,16.7-37.4,37.4-37.4c20.6,0,37.3,16.7,37.3,37.3
	C415.8,493.7,399.2,510.4,378.4,510.2z"/>
<path d="M256.7,314.2c1.7,0,3,0,4.1,0c7.6,0,15.4,0,23,0c3.4,0,3.8,0.4,3.8,3.7c0,16.7,0,33.2,0,49.9c0,3-0.6,3.5-3.7,3.5
	c-7.8,0-15.5,0-23.5,0c-1.3,0-2.4,0-3.8,0c0,1.4-0.1,2.5-0.1,3.7c0,8.2,0,16.3,0,24.4c0,3.7-0.3,3.8-3.8,3.8c-16.5,0-33.1,0-49.5,0
	c-3.4,0-3.7-0.3-3.7-3.7c0-8.1,0-16.1,0-24c0-1.3,0-2.4,0-4.1c-1.4,0-2.5-0.1-3.7-0.1c-7.6,0-15.4,0-23,0c-4.1,0-4.4-0.3-4.4-4.1
	c0-16.3,0-32.5,0-48.8c0-3.7,0.3-4,4.1-4c7.6,0,15.4,0,23,0c1.1,0,2.3,0,3.8,0c0-1.3,0.1-2.5,0.1-3.7c0-7.8,0-15.5,0-23.3
	c0-3.8,0.3-4.1,4.1-4.1c16.3,0,32.5,0,48.9,0c4,0,4.1,0.1,4.1,4.2c0,7.6,0,15.4,0,23C256.7,311.5,256.7,312.7,256.7,314.2z
	 M252.8,287.2c-16.5,0-32.5,0-48.8,0c0,1.3-0.1,2.4-0.1,3.5c0,7.8,0,15.5,0,23.5c0,3.8-0.3,4.1-4,4.1c-7.8,0-15.5,0-23.5,0
	c-1.1,0-2.4,0.1-3.5,0.1c0,16.4,0,32.4,0,48.6c1.3,0,2.4,0.1,3.5,0.1c7.8,0,15.5,0,23.5,0c3.8,0,4.1,0.3,4.1,4c0,8.2,0,16.5,0,24.7
	c0,1,0.1,2,0.1,3.1c16.3,0,32.4,0,48.8,0c0-3.5,0-6.9,0-10.3c0-5.9,0-12,0-17.9c0-3,0.6-3.4,3.5-3.5c0.7,0,1.4,0,2,0
	c7.3,0,14.7,0,22,0c1.1,0,2.1-0.1,3.1-0.1c0-16.4,0-32.5,0-48.8c-1.4,0-2.4,0-3.5,0c-7.5,0-15,0-22.3,0c-4.7,0-4.8-0.1-4.8-4.7
	c0-7.5,0-15,0-22.3C252.8,289.9,252.8,288.8,252.8,287.2z"/>
<path d="M856.9,304.8c0-12,9.6-21.6,21.5-21.5c11.7,0.1,21.2,9.8,21.2,21.5c0,11.9-9.8,21.5-21.6,21.5
	C866.3,326.1,856.9,316.6,856.9,304.8z"/>
<path d="M878.2,367.9c11.9,0,21.5,9.6,21.5,21.5c0,11.7-9.6,21.2-21.3,21.2c-12,0-21.5-9.5-21.5-21.5
	C856.9,377.2,866.3,367.9,878.2,367.9z"/>
<path d="M941.8,347.6c0,11.9-9.5,21.3-21.3,21.3c-11.9,0-21.5-9.6-21.5-21.5c0-11.7,9.6-21.2,21.3-21.3
	C932.3,325.9,941.9,335.6,941.8,347.6z"/>
<path d="M835.9,326.1c11.7-0.1,21.5,9.5,21.6,21.2c0.1,11.7-9.6,21.6-21.5,21.6c-11.7,0-21.2-9.3-21.3-21.1
	C814.6,335.8,823.9,326.2,835.9,326.1z"/>
<path class="st0" d="M252.8,287.2c0,1.6,0,2.7,0,4c0,7.5,0,15,0,22.3c0,4.5,0.1,4.7,4.8,4.7c7.5,0,15,0,22.3,0c1.1,0,2.3,0,3.5,0
	c0,16.3,0,32.2,0,48.8c-1,0-2,0.1-3.1,0.1c-7.3,0-14.7,0-22,0c-0.7,0-1.4,0-2,0c-3.1,0.1-3.5,0.6-3.5,3.5c0,5.9,0,12,0,17.9
	c0,3.4,0,6.8,0,10.3c-16.4,0-32.5,0-48.8,0c0-1.1-0.1-2.1-0.1-3.1c0-8.2,0-16.5,0-24.7c0-3.8-0.3-4-4.1-4c-7.8,0-15.5,0-23.5,0
	c-1.1,0-2.3-0.1-3.5-0.1c0-16.3,0-32.2,0-48.6c1.1,0,2.4-0.1,3.5-0.1c7.8,0,15.5,0,23.5,0c3.7,0,4-0.3,4-4.1c0-7.8,0-15.5,0-23.5
	c0-1.1,0.1-2.3,0.1-3.5C220.3,287.2,236.2,287.2,252.8,287.2z M248.4,322.7c0-5.4,0-10.5,0-15.5c0-5.1,0-10.3,0-15.5
	c-13.6,0-26.6,0-40.1,0c0,10.3,0,20.6,0,31.1c-5.5,0-10.6,0-15.7,0c-5.1,0-10.2,0-15.1,0c-0.7,4.4-0.6,37.6,0.3,40
	c5.1,0,10,0,15.1,0s10-0.1,15.5,0.1c0,10.6,0,20.6,0,30.9c13.4,0,26.6,0,40,0c0-10.3,0-20.5,0-31.1c10.6,0,20.8,0,31.1,0
	c0-13.6,0-26.6,0-40C269,322.7,259,322.7,248.4,322.7z"/>
<path d="M248.4,322.7c10.5,0,20.6,0,30.9,0c0,13.4,0,26.4,0,40c-10.3,0-20.5,0-31.1,0c0,10.6,0,20.8,0,31.1c-13.4,0-26.4,0-40,0
	c0-10.2,0-20.3,0-30.9c-5.4-0.1-10.5-0.1-15.5-0.1c-5.1,0-10.2,0-15.1,0c-0.8-2.5-1-35.6-0.3-40c4.9,0,10,0,15.1,0s10.2,0,15.7,0
	c0-10.6,0-20.8,0-31.1c13.6,0,26.6,0,40.1,0c0,5.2,0,10.5,0,15.5C248.4,312.2,248.4,317.3,248.4,322.7z"/>
</svg>
